<svg xmlns="http://www.w3.org/2000/svg" viewBox="0 0 362.55 198.59"><defs><style>.cls-1{fill:#5195d0;}.cls-2{fill:#e8ecf1;}</style></defs><g id="Layer_2" data-name="Layer 2"><g id="Layer_1-2" data-name="Layer 1"><path class="cls-1" d="M105.83,10.66c1.94,11.88,8.57,26.67,23,22.46,5.19-1.28,12.81-5.63,17.85-7.88C165.59,16.07,185,8,205.82,16.58c12.69,5.08,23.39,13.76,33.13,23.09a.25.25,0,0,1-.34.37c-14.75-12.64-32.59-25.28-52.88-24-13.24.91-25.29,7.18-36.9,13.34-9.21,4.73-19.06,12-30,8.31-10.74-4-14.13-16.79-13.48-27.07a.25.25,0,0,1,.5,0Z"/><path class="cls-1" d="M95.83,32.91c1.32,9.67,4.85,20.75,12.77,26.76,8.26,6.31,20,1.88,27-1.89,19.11-13.63,42.51-26,66.7-21.36,11.83,2.16,22.65,7.86,32.27,14.84A182,182,0,0,1,260.69,75a.25.25,0,0,1,0,.35c-20.39-19-45.84-40.74-76-35.92-17.41,2.62-32.25,12.68-46.39,22.74-13,7.25-29.15,8.72-37.59-5.89a43.66,43.66,0,0,1-5.41-23.38.26.26,0,0,1,.27-.24.25.25,0,0,1,.23.24Z"/><path class="cls-1" d="M95.83,61.86c1.53,9.46,6.08,20.7,16,23.59,8.89,2.35,18-2.1,25.85-6.21,13.76-6.31,27-14.62,42.28-17,14.54-2.26,28.89,3.06,41.24,10.2a173.21,173.21,0,0,1,17.76,11.75.25.25,0,0,1-.29.41,191.1,191.1,0,0,0-18.2-10.81c-12.25-6.31-26.21-11-40-8.34-14.61,2.76-27.3,11.44-40.41,18.22-11.68,7.25-29.27,12-38.87-1a32.78,32.78,0,0,1-5.83-20.83.25.25,0,0,1,.5,0Z"/><path class="cls-1" d="M95.83,87.47c2.67,10.21,12.07,21.89,22.9,23.57,5.38.87,10.93-.57,16-3.06,2.21-1.08,5.63-3,7.88-4.21,23.5-13,52.68-31,76.14-7.8a.24.24,0,0,1,0,.35.25.25,0,0,1-.34,0,38.58,38.58,0,0,0-15.68-8.42c-18-4.23-35.09,6.14-50,15.15-10.55,6.42-21.71,15.65-34.95,12.6-9.7-2-16.86-10.29-20.42-19.12-1.12-2.92-2.17-5.91-2.09-9.08a.25.25,0,0,1,.5,0Z"/><path class="cls-2" d="M73.65,127.34c-8.23-.15-23.12-3.55-23.12-20.42,0-10.21.86-18.29.86-27.23,0-7.66-2.84-14-16.88-15V59.84C48.55,59,51.39,54,51.39,45s-.86-14.75-.86-23.82C50.53,4.25,64.86.43,73.65,0l.14,4.11c-11.06,2-13.05,8.23-13.05,15.32,0,9.07,1,14.32,1,23.11,0,10.21-7.24,17.58-16,19.43v.56c8.37,2,16,8.37,16,19.57,0,9.22-1,16.73-1,25.38,0,7.66,2.42,13.76,13.05,15.74Z"/><path class="cls-2" d="M271.86,0c8.36,0,23.25,3.54,23.25,20.28,0,10.35-1,16-1,24.95,0,7.52,3,14.18,17,14.89v4.82c-13.89,1-17,6-17,15s1,17,1,26.09c0,16.87-14.61,21.12-23.25,21.27v-4.12c10.91-2,13-8.08,13-15.45,0-9.08-1.13-16.59-1.13-25.38,0-10.36,7.37-17.59,16-19.57v-.57c-8.37-1.84-16-9.22-16-19.43,0-8.22,1.13-14.46,1.13-23.11,0-7.66-2.41-13.61-13-15.6Z"/><path class="cls-2" d="M27.83,182.09l7.6.84a17.79,17.79,0,0,1-5.29,11.25q-4.55,4.41-11.94,4.41-6.24,0-10.12-3.13a20,20,0,0,1-6-8.5A32.21,32.21,0,0,1,0,175.13q0-10.4,4.93-16.91A16.07,16.07,0,0,1,18.5,151.7a15.92,15.92,0,0,1,11.26,4.17q4.5,4.15,5.67,11.93l-7.6.8q-2.1-10.31-9.27-10.3a8,8,0,0,0-7.15,4.28Q8.86,166.87,8.86,175t2.74,12.48a8.28,8.28,0,0,0,7.23,4.21A7.92,7.92,0,0,0,25,188.86,11.34,11.34,0,0,0,27.83,182.09Z"/><path class="cls-2" d="M54.65,198.59q-7.45,0-11.39-5.37a20.18,20.18,0,0,1-3.94-12.29,18.17,18.17,0,0,1,4.35-12.43,14.53,14.53,0,0,1,11.48-5,14.3,14.3,0,0,1,11.12,4.83c2.9,3.23,4.35,7.41,4.35,12.57q0,8-4.52,12.81A15,15,0,0,1,54.65,198.59Zm.27-6.26q7.66,0,7.67-11.44a15.48,15.48,0,0,0-1.84-8.14,6.15,6.15,0,0,0-5.63-3,6.37,6.37,0,0,0-5.83,3.09,15.41,15.41,0,0,0-1.9,8.18q0,5.49,2,8.4A6.36,6.36,0,0,0,54.92,192.33Z"/><path class="cls-2" d="M105.24,197.89H98.15v-6.8q-2.94,7.5-9.94,7.5a10.6,10.6,0,0,1-9.49-5.16,23.4,23.4,0,0,1-3.3-12.84,22.36,22.36,0,0,1,3.43-12.43,11,11,0,0,1,9.76-5.29,9.07,9.07,0,0,1,9,5.93V152.4h7.59ZM97.65,178a9.52,9.52,0,0,0-2-6.38,6.35,6.35,0,0,0-5-2.29,6,6,0,0,0-5.27,2.94q-1.91,2.92-1.9,8.76,0,11.26,7.07,11.27a6.5,6.5,0,0,0,5-2.42,9,9,0,0,0,2.15-6.18Z"/><path class="cls-2" d="M135.74,187.16l6.86.93a14.3,14.3,0,0,1-5.2,7.53,15.44,15.44,0,0,1-9.7,3,14.49,14.49,0,0,1-11.26-4.7q-4.26-4.69-4.27-12.73a18.7,18.7,0,0,1,4.3-12.63q4.31-5,11.67-5,7.2,0,11.13,4.93t3.93,12.67l0,.86h-23.1a19,19,0,0,0,.65,5.5,7.44,7.44,0,0,0,2.59,3.6,7.53,7.53,0,0,0,4.83,1.54Q133.76,192.63,135.74,187.16Zm-.47-10.06a8.48,8.48,0,0,0-2.18-5.94,7.37,7.37,0,0,0-10.55-.15,9.75,9.75,0,0,0-2.47,6.09Z"/><path class="cls-2" d="M157.73,197.89h-7.6V164.23H157v8a14.34,14.34,0,0,1,4-6.86,8.1,8.1,0,0,1,5.27-2.17l1,0v8.17q-5.81,0-7.69,3.7a15.79,15.79,0,0,0-1.88,7.16Z"/><path class="cls-1" d="M232.82,152.4l-12.17,45.49h-8.6L203,164.43l-8.23,33.46h-8.43L173.9,152.4h8.69l8.8,33.16,8.2-33.16h8.3L217,185.56l8.63-33.16Z"/><path class="cls-1" d="M264.94,197.89h-7.23a28,28,0,0,1-1.17-6.8q-3,7.5-11.39,7.5a11.1,11.1,0,0,1-8.08-3,9.85,9.85,0,0,1-3-7.41q0-11.61,20.36-11.6l2.16,0v-2.53q0-5.24-7.13-5.23-6.93,0-7.86,5.23l-6.47-1a9.79,9.79,0,0,1,4.34-6.91q3.79-2.72,11-2.72a25.88,25.88,0,0,1,6.37.65,9.74,9.74,0,0,1,4.16,2.2,8.32,8.32,0,0,1,2.35,3.37,20.08,20.08,0,0,1,.65,6.15v15.19A24.94,24.94,0,0,0,264.94,197.89Zm-8.4-17.13q-14.73,0-14.73,7a4.9,4.9,0,0,0,1.49,3.59,6.12,6.12,0,0,0,4.48,1.48,7.93,7.93,0,0,0,6.55-2.75,9.67,9.67,0,0,0,2.21-6.25Z"/><path class="cls-1" d="M297.54,164.23,286.1,197.89h-6.29l-11.7-33.66H276l7.86,22.83,7.67-22.83Z"/><path class="cls-1" d="M323.33,187.16l6.86.93a14.28,14.28,0,0,1-5.19,7.53,15.46,15.46,0,0,1-9.7,3,14.51,14.51,0,0,1-11.27-4.7q-4.26-4.69-4.26-12.73a18.65,18.65,0,0,1,4.3-12.63q4.29-5,11.66-5,7.2,0,11.13,4.93t3.93,12.67l0,.86H307.67a18.61,18.61,0,0,0,.65,5.5,7.36,7.36,0,0,0,2.58,3.6,7.55,7.55,0,0,0,4.83,1.54Q321.37,192.63,323.33,187.16Zm-.47-10.06a8.48,8.48,0,0,0-2.18-5.94,7.37,7.37,0,0,0-10.55-.15,9.69,9.69,0,0,0-2.46,6.09Z"/><path class="cls-1" d="M333.63,190.16l7.13-1.37c1.09,2.74,3.49,4.1,7.2,4.1q7.07,0,7.06-4.16a2.66,2.66,0,0,0-1.1-2.2,6,6,0,0,0-2.6-1.17l-6.13-1.17q-10.2-2-10.2-10a10.12,10.12,0,0,1,3.24-7.58q3.22-3.12,9.63-3.12,10.67,0,13,7.83l-6.77,1.37q-1.06-3.79-6.06-3.8-6.07,0-6.07,3.8,0,2.64,4.9,3.63l7.23,1.5q8.43,1.74,8.43,9.67a9.17,9.17,0,0,1-4.33,8.31,18.84,18.84,0,0,1-10.3,2.75,19.36,19.36,0,0,1-9.13-2.08A10,10,0,0,1,333.63,190.16Z"/></g></g></svg>