<svg xmlns="http://www.w3.org/2000/svg" viewBox="0 0 276.62 127.34"><defs><style>.cls-1{fill:#1552a1;}.cls-2{fill:#282324;}</style></defs><g id="Layer_2" data-name="Layer 2"><g id="Layer_1-2" data-name="Layer 1"><path class="cls-1" d="M71.32,10.66c1.94,11.88,8.57,26.67,23,22.46,5.19-1.28,12.81-5.63,17.85-7.88,18.87-9.17,38.29-17.22,59.1-8.66C184,21.66,194.7,30.34,204.44,39.67a.25.25,0,0,1-.34.37c-14.75-12.64-32.6-25.28-52.88-24-13.24.91-25.29,7.18-36.9,13.34-9.21,4.73-19.06,12-30,8.31-10.74-4-14.13-16.79-13.48-27.07a.25.25,0,0,1,.5,0Z"/><path class="cls-1" d="M61.32,32.91c1.32,9.67,4.84,20.75,12.77,26.76,8.26,6.31,20,1.88,27-1.89,19.11-13.63,42.51-26,66.7-21.36,11.83,2.16,22.65,7.86,32.27,14.84A182,182,0,0,1,226.18,75a.25.25,0,0,1,0,.35c-20.39-19-45.84-40.74-75.95-35.92C132.79,42.06,118,52.12,103.82,62.18c-13,7.25-29.15,8.72-37.59-5.89a43.57,43.57,0,0,1-5.41-23.38.25.25,0,0,1,.5,0Z"/><path class="cls-1" d="M61.32,61.86c1.53,9.46,6.08,20.7,16,23.59,8.88,2.35,18-2.1,25.85-6.21,13.75-6.31,27-14.62,42.27-17,14.55-2.26,28.9,3.06,41.25,10.2a173.21,173.21,0,0,1,17.76,11.75.25.25,0,0,1-.29.41,191.1,191.1,0,0,0-18.2-10.81c-12.26-6.31-26.21-11-40-8.34-14.61,2.76-27.3,11.44-40.41,18.22-11.68,7.25-29.27,12-38.87-1a32.72,32.72,0,0,1-5.83-20.83.25.25,0,0,1,.5,0Z"/><path class="cls-1" d="M61.32,87.47C64,97.68,73.39,109.36,84.22,111c5.38.87,10.93-.57,16-3.06,2.2-1.08,5.63-3,7.88-4.21,23.5-13,52.68-31,76.14-7.8a.24.24,0,0,1,0,.35.25.25,0,0,1-.34,0,38.55,38.55,0,0,0-15.69-8.42c-18-4.23-35.08,6.14-50,15.15-10.55,6.42-21.71,15.65-34.95,12.6-9.7-2-16.86-10.29-20.42-19.12-1.12-2.92-2.17-5.91-2.09-9.08a.25.25,0,0,1,.5,0Z"/><path class="cls-2" d="M39.14,127.34C30.91,127.19,16,123.79,16,106.92c0-10.21.86-18.3.86-27.23,0-7.66-2.84-14-16.88-15V59.84C14,59,16.88,54,16.88,45S16,30.2,16,21.13C16,4.25,30.35.43,39.14,0l.14,4.11c-11.06,2-13,8.23-13,15.32,0,9.07,1,14.32,1,23.11,0,10.21-7.24,17.58-16,19.43v.56c8.37,2,16,8.37,16,19.57,0,9.22-1,16.73-1,25.38,0,7.66,2.41,13.76,13.05,15.74Z"/><path class="cls-2" d="M237.34,0c8.37,0,23.26,3.54,23.26,20.28,0,10.35-1,16-1,24.95,0,7.52,3,14.18,17,14.89v4.82c-13.89,1-17,6-17,15s1,17,1,26.09c0,16.87-14.61,21.12-23.26,21.27v-4.12c10.92-2,13-8.08,13-15.45,0-9.08-1.13-16.59-1.13-25.38,0-10.36,7.37-17.59,16-19.57v-.57c-8.37-1.84-16-9.22-16-19.43,0-8.22,1.13-14.46,1.13-23.11,0-7.66-2.41-13.61-13-15.6Z"/></g></g></svg>